<svg width="45" height="43" viewBox="0 0 45 43" fill="none" xmlns="http://www.w3.org/2000/svg">
<path d="M0.328238 16.5893L11.5865 27.3549L9.10629 42.7305L22.8187 35.3543L36.674 42.4708L33.8951 27.1471L44.9586 16.1608L29.5191 14.07L22.4941 0.16184L15.7288 14.1999L0.328238 16.5893Z" fill="#FF645A"/>
<path d="M24.5 20.8C24.5 20.56 24.4533 20.34 24.36 20.14C24.2667 19.9267 24.1333 19.7467 23.96 19.6C23.8 19.44 23.6 19.3133 23.36 19.22C23.1333 19.1267 22.8867 19.08 22.62 19.08C22.06 19.08 21.5867 19.1867 21.2 19.4C20.8267 19.6133 20.48 19.9333 20.16 20.36L18.8 18.82C19.16 18.2333 19.68 17.7467 20.36 17.36C21.0533 16.9733 21.8533 16.78 22.76 16.78C23.4267 16.78 24.02 16.8733 24.54 17.06C25.06 17.2467 25.5 17.5 25.86 17.82C26.22 18.14 26.4933 18.5133 26.68 18.94C26.8667 19.3667 26.96 19.82 26.96 20.3C26.96 20.9533 26.86 21.5067 26.66 21.96C26.46 22.4133 26.2133 22.8067 25.92 23.14C25.64 23.46 25.3333 23.7467 25 24C24.6667 24.24 24.36 24.4867 24.08 24.74C23.8133 24.9933 23.6067 25.2733 23.46 25.58C23.3133 25.8733 23.2733 26.2267 23.34 26.64L21.24 26.66C21.1467 26.0733 21.16 25.5867 21.28 25.2C21.4 24.8 21.58 24.46 21.82 24.18C22.06 23.8867 22.3333 23.6267 22.64 23.4C22.96 23.1733 23.2533 22.9467 23.52 22.72C23.8 22.48 24.0333 22.2133 24.22 21.92C24.4067 21.6133 24.5 21.24 24.5 20.8ZM20.8 29.5C20.8 29.3267 20.8333 29.1533 20.9 28.98C20.98 28.7933 21.0867 28.6333 21.22 28.5C21.3533 28.3533 21.52 28.24 21.72 28.16C21.92 28.0667 22.14 28.02 22.38 28.02C22.5933 28.02 22.7933 28.0667 22.98 28.16C23.1667 28.24 23.32 28.3533 23.44 28.5C23.5733 28.6333 23.6733 28.7933 23.74 28.98C23.82 29.1533 23.86 29.3267 23.86 29.5C23.86 29.9133 23.72 30.2867 23.44 30.62C23.1733 30.94 22.82 31.1 22.38 31.1C21.8867 31.1 21.5 30.94 21.22 30.62C20.94 30.2867 20.8 29.9133 20.8 29.5Z" fill="white"/>
</svg>
