<svg width="1727" height="653" viewBox="0 0 1727 653" fill="none" xmlns="http://www.w3.org/2000/svg">
<g filter="url(#filter0_d)">
<path fill-rule="evenodd" clip-rule="evenodd" d="M1322.43 511.725C1223.73 541.294 1121.97 508.18 1034.37 453.929C934.357 391.989 820.795 316.164 816.829 198.592C812.871 81.2626 927.361 6.22251 1016.7 -69.9424C1105.23 -145.427 1197.49 -247.786 1311.13 -222.832C1423.19 -198.224 1466.33 -68.6318 1508.53 38.0581C1543.41 126.218 1555.82 219.86 1521.15 308.1C1484.66 400.969 1418.02 483.091 1322.43 511.725Z" fill="white"/>
</g>
<path d="M1143.07 456.134C1145.41 456.134 1147.62 454.728 1148.53 452.417L1162.85 415.997C1164.04 412.986 1162.56 409.589 1159.54 408.411C1156.53 407.226 1153.13 408.708 1151.95 411.719L1137.62 448.139C1136.44 451.151 1137.92 454.547 1140.93 455.726C1141.64 456.006 1142.36 456.134 1143.07 456.134Z" fill="#494949"/>
<path d="M1671.09 305.831C1671.09 305.831 1691.11 322.171 1727 296.074C1727 296.074 1686.47 262.175 1671.09 284.123C1655.71 306.071 1671.09 305.831 1671.09 305.831Z" fill="#FFA436"/>
<path d="M1669.4 303.404C1669.4 303.404 1681.63 313.383 1703.55 297.446C1703.55 297.446 1678.79 276.735 1669.4 290.146C1660.01 303.556 1669.4 303.404 1669.4 303.404Z" fill="#FF645A"/>
<path d="M1541.2 293.881C1541.2 293.881 1523.14 220.72 1434.26 220.72C1345.39 220.72 1316.58 275.831 1316.58 275.831L1387.38 348.508L1486.02 357.285H1536.8L1541.2 293.881Z" fill="#494949"/>
<path d="M1446.38 229.823C1446.38 229.823 1482.85 213.892 1496.85 229.175C1510.84 244.459 1503.68 265.916 1503.68 265.916" stroke="#FF645A" stroke-width="40.118" stroke-miterlimit="10"/>
<path d="M1372.41 224.787C1372.41 224.787 1335.13 264.458 1306.82 235.682" stroke="#FF645A" stroke-width="40.118" stroke-miterlimit="10"/>
<path d="M1373 216.716C1373 216.716 1317.58 264.469 1308.69 346.454C1308.69 346.454 1361.16 403.929 1484.7 360.401C1484.7 360.401 1487.66 307.997 1441.12 222.208L1373 216.716Z" fill="#FF645A"/>
<path d="M1421.66 199.39C1447.05 199.39 1458.47 215.87 1453.82 233.622C1449.16 251.374 1394.58 263.629 1384.43 285.18C1374.27 306.731 1359.04 349.418 1361.58 359.561C1364.12 369.703 1450 368.437 1485.97 351.111C1485.97 351.111 1493.16 365.904 1487.23 373.934C1481.31 381.964 1365.38 428.87 1304.88 357.028C1304.88 357.028 1298.96 342.661 1309.54 335.897C1309.54 335.897 1341.65 365.046 1346.35 356.608C1348.46 352.803 1363.27 291.103 1373 271.239C1373 271.239 1336.19 208.692 1386.96 197.284L1421.66 199.39Z" fill="#EEF0F1"/>
<path d="M1453.28 220.089C1456.16 230.295 1452.09 241.552 1444.92 249.372C1437.75 257.192 1427.89 262.029 1417.87 265.537C1409.49 268.472 1400.17 271.057 1394.99 278.27" stroke="#EEF0F1" stroke-width="2.1725" stroke-miterlimit="10" stroke-linecap="round" stroke-linejoin="round"/>
<path d="M1413.47 330.978C1449.86 330.978 1478.41 324.564 1480.69 323.951L1477.93 312.543C1476.93 312.811 1377.93 338.616 1321.42 294.266L1317.77 303.935C1346.13 326.192 1381.39 330.978 1413.47 330.978Z" fill="#494949"/>
<path d="M1349.92 325.282L1372.56 331.491L1377.26 314.376L1354.62 308.167L1349.92 325.282ZM1369.01 325.265L1356.16 321.74L1358.17 314.405L1371.02 317.93L1369.01 325.265Z" fill="#FFA436"/>
<path d="M1391.3 290.245C1390.08 290.245 1389.08 289.252 1389.08 288.028C1389.08 286.803 1390.08 285.81 1391.3 285.81C1392.53 285.81 1393.52 286.803 1393.52 288.028C1393.52 289.252 1392.53 290.245 1391.3 290.245Z" fill="#494949"/>
<path d="M1385.59 306.095C1384.37 306.095 1383.37 305.102 1383.37 303.877C1383.37 302.652 1384.37 301.66 1385.59 301.66C1386.82 301.66 1387.82 302.652 1387.82 303.877C1387.82 305.102 1386.82 306.095 1385.59 306.095Z" fill="#494949"/>
<path d="M1370.36 341.593C1370.36 340.367 1371.36 339.375 1372.58 339.375C1373.81 339.375 1374.8 340.367 1374.8 341.593C1374.8 342.818 1373.81 343.81 1372.58 343.81C1371.36 343.816 1370.36 342.818 1370.36 341.593Z" fill="#494949"/>
<path d="M1408.8 162.24C1415.84 155.156 1426.3 151.625 1436.21 152.997C1440.38 153.575 1444.6 154.963 1448.7 154.047C1452.53 153.195 1455.73 150.435 1459.58 149.741C1467.65 148.282 1475.47 156.236 1483.39 154.088C1484.14 154.829 1483.93 156.16 1483.22 156.936C1482.5 157.706 1481.44 158.045 1480.42 158.301C1477.54 159.025 1474.55 159.34 1471.58 159.229C1468.78 159.124 1465.79 158.681 1463.32 160C1459.45 162.06 1458.8 167.166 1457.21 171.245C1454.45 178.283 1447.38 183.424 1439.84 183.908C1436.88 179.928 1433.93 175.948 1430.97 171.968C1428.42 168.531 1425.83 165.024 1424.48 160.968C1423.7 158.652 1422.35 155.535 1419.98 156.131" fill="#FF645A"/>
<path d="M1394.22 191.728C1395.81 188.495 1396.06 185.373 1392.83 183.792C1389.6 182.204 1385.69 183.541 1384.11 186.774C1382.52 190.006 1383.85 193.911 1387.09 195.492C1390.33 197.073 1392.63 194.961 1394.22 191.728Z" fill="#FF645A"/>
<path d="M1391.64 179.771C1391.64 179.771 1387.17 197.366 1384.37 201.392C1355.16 243.455 1348.44 269.517 1358.32 282.157C1368.21 294.797 1420.4 289.265 1437.8 192.901C1437.8 192.907 1418.62 161.115 1391.64 179.771Z" fill="white"/>
<path d="M1394.5 177.104C1394.5 177.104 1381.84 208.109 1400.63 212.054C1419.41 216.004 1424.75 207.117 1432.66 183.617C1432.66 183.623 1420.2 159.335 1394.5 177.104Z" fill="#FCA19F"/>
<path d="M1416.29 208.575C1412.83 208.575 1410.02 205.774 1410.02 202.319C1410.02 198.864 1412.83 196.063 1416.29 196.063C1419.74 196.063 1422.55 198.864 1422.55 202.319C1422.55 205.774 1419.74 208.575 1416.29 208.575Z" fill="#FF645A"/>
<path d="M1399.42 196.198C1399.42 199.652 1396.61 202.453 1393.16 202.453C1392.34 202.453 1391.57 202.284 1390.85 202.004C1390.06 198.357 1390.27 194.225 1390.88 190.38C1391.58 190.105 1392.35 189.936 1393.16 189.936C1396.61 189.942 1399.42 192.743 1399.42 196.198Z" fill="#FF645A"/>
<path d="M1429 210.874C1429 210.874 1420.6 217.194 1412.89 213.839C1405.17 210.483 1403.79 203.376 1405.07 201.497C1406.36 199.623 1411.3 199.326 1413.97 201.298C1416.64 203.271 1420 211.073 1429 210.874Z" fill="#EEF0F1"/>
<path d="M1378.51 195.498C1378.51 195.498 1381.2 205.652 1389.33 207.782C1397.47 209.906 1402.96 205.179 1403.11 202.909C1403.26 200.639 1399.56 197.353 1396.24 197.26C1392.93 197.155 1385.46 201.211 1378.51 195.498Z" fill="#EEF0F1"/>
<path d="M1431.94 200.219C1432.82 196.729 1434.64 194.179 1438.13 195.054C1441.62 195.935 1443.74 199.478 1442.86 202.967C1441.98 206.457 1438.43 208.575 1434.94 207.694C1431.45 206.813 1431.05 203.708 1431.94 200.219Z" fill="#FF645A"/>
<path d="M1399.34 171.625C1399.34 171.625 1409.43 152.221 1429.89 154.888C1450.35 157.555 1442.19 181.989 1442.19 181.989L1440.12 185.397C1440.12 185.402 1414.02 168.222 1399.34 171.625Z" fill="#FF645A"/>
<path d="M1437.8 192.907C1437.8 192.907 1442.79 188.658 1440.12 185.402C1437.45 182.146 1421.53 167.428 1399.65 170.294C1390.6 171.478 1390.01 177.553 1391.05 179.771C1391.05 179.771 1400.53 176.514 1412.25 178.732C1423.96 180.955 1434.44 192.556 1437.8 192.907Z" fill="#EEF0F1"/>
<path d="M1487.41 163.396C1482.91 163.396 1479.25 159.749 1479.25 155.25C1479.25 150.75 1482.91 147.103 1487.41 147.103C1491.91 147.103 1495.57 150.75 1495.57 155.25C1495.57 159.749 1491.91 163.396 1487.41 163.396Z" fill="#EEF0F1"/>
<path d="M1407.8 190.14C1405.88 189.142 1395.49 202.325 1402.46 204.729C1410.39 207.466 1409.5 191.027 1407.8 190.14Z" fill="#FF645A"/>
<path d="M1423.65 190.193C1422.24 191.734 1418.96 189.534 1417.43 189.137C1416.24 188.828 1414.66 188.087 1414.64 186.628C1414.64 185.752 1415.38 185.017 1416.21 184.743C1418.44 184.008 1421.51 184.924 1423.09 186.593C1423.54 187.065 1423.91 187.62 1424.07 188.25C1424.22 188.88 1424.13 189.586 1423.73 190.094C1423.7 190.129 1423.68 190.164 1423.65 190.193Z" fill="white"/>
<path d="M1394.25 183.313C1395.01 185.256 1398.87 184.375 1400.43 184.55C1401.66 184.684 1403.4 184.561 1403.94 183.207C1404.26 182.396 1403.83 181.439 1403.15 180.885C1401.33 179.397 1398.14 179.158 1396.06 180.15C1395.48 180.43 1394.93 180.815 1394.56 181.346C1394.2 181.877 1394.03 182.571 1394.21 183.19C1394.22 183.237 1394.24 183.277 1394.25 183.313Z" fill="white"/>
<path d="M1440.1 177.431C1441.8 181.282 1441.14 183.949 1441.14 183.949C1441.14 183.949 1443.95 182.123 1444.3 180.343" stroke="#494949" stroke-width="1.0151" stroke-miterlimit="10" stroke-linecap="round" stroke-linejoin="round"/>
<path d="M1394.79 211.715C1391.82 218.094 1383.14 220.066 1379.82 226.275C1377.63 230.401 1378.29 235.525 1376.42 239.808C1374.55 244.068 1370.38 247.05 1368.79 251.421C1367.43 255.167 1368.18 259.334 1367.57 263.273C1367.05 266.64 1365.53 269.762 1364.6 273.036C1363.68 276.316 1363.42 280.056 1365.25 282.927" stroke="#EEF0F1" stroke-width="2.0303" stroke-miterlimit="10" stroke-linecap="round" stroke-linejoin="round"/>
<path d="M1398.04 216.477C1396.4 223.007 1388.7 226.561 1386.85 233.032C1385.95 236.148 1386.55 239.556 1385.55 242.643C1384.18 246.915 1380 249.78 1378.39 253.97C1377.4 256.556 1377.47 259.409 1377.08 262.146C1376.39 266.961 1374.21 271.553 1370.91 275.125" stroke="#EEF0F1" stroke-width="2.0303" stroke-miterlimit="10" stroke-linecap="round" stroke-linejoin="round"/>
<path d="M1407.3 217.633C1409.22 220.195 1408.28 223.883 1406.73 226.69C1405.18 229.497 1403.06 232.164 1402.77 235.35C1402.37 239.551 1405.25 243.794 1403.95 247.809C1402.8 251.374 1398.72 253.405 1397.65 257C1397.14 258.745 1397.42 260.612 1397.28 262.427C1396.96 266.506 1394.5 270.171 1391.38 272.826C1388.26 275.475 1384.51 277.255 1380.81 279.006" stroke="#EEF0F1" stroke-width="2.0303" stroke-miterlimit="10" stroke-linecap="round" stroke-linejoin="round"/>
<path opacity="0.5" d="M1389.1 190.276C1388.71 186.349 1391.59 182.858 1395.52 182.477C1399.45 182.096 1402.95 184.971 1403.33 188.897C1403.71 192.823 1400.83 196.315 1396.9 196.696C1392.97 197.076 1389.48 194.202 1389.1 190.276Z" fill="white"/>
<path d="M1395.71 197.12C1399.87 197.394 1403.49 194.232 1403.77 190.071C1404.04 185.91 1400.87 182.298 1396.71 182.023C1392.54 181.749 1388.93 184.912 1388.65 189.073C1388.38 193.239 1391.54 196.846 1395.71 197.12ZM1396.66 182.87C1400.36 183.115 1403.17 186.324 1402.92 190.018C1402.68 193.712 1399.47 196.525 1395.77 196.28C1392.06 196.035 1389.25 192.825 1389.5 189.131C1389.74 185.431 1392.96 182.624 1396.66 182.87Z" fill="#494949"/>
<path opacity="0.5" d="M1414.54 201.404C1410.88 199.921 1409.12 195.755 1410.6 192.1C1412.09 188.445 1416.26 186.684 1419.92 188.167C1423.58 189.651 1425.34 193.816 1423.85 197.472C1422.37 201.127 1418.2 202.888 1414.54 201.404Z" fill="white"/>
<path d="M1416.72 202.319C1420.89 202.594 1424.51 199.431 1424.78 195.27C1425.05 191.109 1421.89 187.497 1417.72 187.223C1413.56 186.948 1409.94 190.111 1409.67 194.272C1409.39 198.433 1412.56 202.045 1416.72 202.319ZM1417.67 188.069C1421.37 188.314 1424.18 191.523 1423.94 195.217C1423.69 198.911 1420.48 201.724 1416.78 201.479C1413.08 201.234 1410.27 198.024 1410.51 194.33C1410.76 190.631 1413.97 187.824 1417.67 188.069Z" fill="#494949"/>
<path d="M1403.16 190.829C1403.16 190.829 1408.32 187.433 1410.34 193.21" stroke="#494949" stroke-width="1.447" stroke-miterlimit="10"/>
<path d="M1306.17 253.813C1309.11 251.677 1319.11 238.407 1319.21 228.165C1319.21 228.165 1308.41 216.412 1304.16 218.356C1299.92 220.299 1286.12 239.714 1288.21 243.104C1290.29 246.489 1303.95 255.429 1306.17 253.813Z" fill="#EEF0F1"/>
<path d="M1503.87 328.607L1442.79 338.026L1433.36 277.025L1494.44 267.606L1503.87 328.607Z" fill="#EEF0F1"/>
<path d="M1494.29 267.679L1495.82 277.535L1484.87 269.132L1494.29 267.679Z" fill="#494949"/>
<path d="M1433.22 277.092L1443.5 275.511L1502.5 320.807L1503.72 328.679L1500.61 329.158L1433.27 277.466L1433.22 277.092Z" fill="#494949"/>
<path d="M1458.41 273.211L1469.05 271.571L1498.37 294.085L1500.09 305.202L1458.41 273.211Z" fill="#494949"/>
<path d="M1441.34 329.659L1439.62 318.537L1461.35 335.215L1450.71 336.855L1441.34 329.659Z" fill="#494949"/>
<path d="M1437.31 303.562L1435.59 292.439L1486.29 331.369L1475.67 333.009L1437.31 303.562Z" fill="#494949"/>
<path d="M1464.41 271.53C1464.91 265.432 1466.22 259.398 1468.29 253.638C1469.98 248.94 1473.24 243.718 1478.24 243.799C1479.04 243.811 1479.88 243.992 1480.49 244.523C1481.59 245.474 1481.58 247.166 1481.37 248.602C1479.92 258.523 1472.92 267.445 1463.62 271.221C1461.15 264.411 1456.35 258.47 1450.19 254.642C1447.57 253.008 1444.55 251.724 1441.47 252.004C1438.39 252.29 1435.34 254.56 1435.03 257.636C1434.68 261.166 1437.8 264.031 1440.82 265.881C1446.44 269.313 1452.81 271.501 1459.35 272.23C1460.99 272.411 1462.71 272.499 1464.25 271.892C1466.68 270.941 1468.22 268.466 1470.58 267.346C1475.25 265.134 1480.66 269.231 1482.86 273.899C1485.06 278.568 1485.54 283.978 1488.26 288.366C1488.72 289.101 1489.28 289.831 1490.08 290.157C1491.74 290.829 1493.47 289.504 1494.86 288.372C1499.42 284.672 1505.42 282.069 1511.11 283.482" stroke="#FFA436" stroke-width="3.3432" stroke-miterlimit="10" stroke-linecap="round" stroke-linejoin="round"/>
<path d="M1471.81 332.209L1463.63 271.215" stroke="#FFA436" stroke-width="3.3432" stroke-miterlimit="10" stroke-linecap="round" stroke-linejoin="round"/>
<path d="M1437.04 305.762L1499.5 297.866" stroke="#FFA436" stroke-width="3.3432" stroke-miterlimit="10" stroke-linecap="round" stroke-linejoin="round"/>
<path d="M1465.35 355.648L1423.69 352.779L1426.57 311.172L1468.22 314.041L1465.35 355.648Z" fill="#FFA436"/>
<path d="M1447.85 312.146C1449.08 308.202 1450.84 304.42 1453.07 300.93C1454.88 298.088 1457.81 295.124 1461.09 295.923C1461.62 296.052 1462.15 296.297 1462.47 296.735C1463.05 297.522 1462.8 298.637 1462.44 299.553C1460.01 305.873 1454.06 310.717 1447.37 311.82C1446.76 306.964 1444.47 302.337 1440.99 298.894C1439.51 297.429 1437.71 296.134 1435.63 295.859C1433.56 295.591 1431.21 296.635 1430.55 298.614C1429.79 300.89 1431.42 303.241 1433.14 304.91C1436.33 308.009 1440.2 310.396 1444.4 311.849C1445.46 312.217 1446.58 312.526 1447.68 312.357C1449.42 312.088 1450.81 310.688 1452.53 310.302C1455.94 309.538 1458.89 313.039 1459.65 316.447C1460.41 319.85 1459.92 323.491 1461.06 326.788C1461.25 327.342 1461.51 327.909 1461.99 328.241C1462.98 328.93 1464.33 328.317 1465.41 327.774C1468.96 326.012 1473.3 325.189 1476.85 326.963" stroke="#494949" stroke-width="2.647" stroke-miterlimit="10" stroke-linecap="round" stroke-linejoin="round"/>
<path d="M1443.69 353.235L1447.38 311.819" stroke="#494949" stroke-width="2.647" stroke-miterlimit="10" stroke-linecap="round" stroke-linejoin="round"/>
<path d="M1424.7 330.639L1467.05 334.718" stroke="#494949" stroke-width="2.647" stroke-miterlimit="10" stroke-linecap="round" stroke-linejoin="round"/>
<path d="M1703.45 176.957L1661.8 174.087L1664.67 132.48L1706.32 135.35L1703.45 176.957Z" fill="#FFA436"/>
<path d="M1685.95 133.455C1687.19 129.51 1688.95 125.729 1691.17 122.239C1692.98 119.397 1695.92 116.433 1699.19 117.232C1699.72 117.36 1700.25 117.606 1700.57 118.043C1701.16 118.831 1700.9 119.946 1700.54 120.862C1698.11 127.182 1692.16 132.025 1685.48 133.128C1684.87 128.273 1682.58 123.645 1679.1 120.202C1677.61 118.738 1675.81 117.442 1673.74 117.168C1671.66 116.899 1669.32 117.944 1668.65 119.922C1667.9 122.198 1669.53 124.55 1671.24 126.219C1674.43 129.318 1678.31 131.704 1682.51 133.157C1683.56 133.525 1684.68 133.834 1685.78 133.665C1687.53 133.397 1688.91 131.996 1690.63 131.611C1694.04 130.847 1697 134.348 1697.76 137.756C1698.52 141.158 1698.02 144.8 1699.16 148.097C1699.36 148.651 1699.61 149.217 1700.09 149.55C1701.09 150.238 1702.43 149.626 1703.51 149.083C1707.06 147.321 1711.4 146.498 1714.95 148.272" stroke="#494949" stroke-width="2.647" stroke-miterlimit="10" stroke-linecap="round" stroke-linejoin="round"/>
<path d="M1681.79 174.543L1685.48 133.128" stroke="#494949" stroke-width="2.647" stroke-miterlimit="10" stroke-linecap="round" stroke-linejoin="round"/>
<path d="M1662.81 151.948L1705.15 156.027" stroke="#494949" stroke-width="2.647" stroke-miterlimit="10" stroke-linecap="round" stroke-linejoin="round"/>
<path d="M41.4091 124.483L19.1357 137.002L6.63414 114.753L28.9075 102.233L41.4091 124.483Z" fill="#FFA436"/>
<path d="M17.8479 108.106C17.1568 105.672 16.7867 103.146 16.7536 100.614C16.7259 98.5517 17.2308 96.0503 19.176 95.3588C19.4911 95.2459 19.8424 95.1947 20.1537 95.3107C20.7172 95.5176 20.9599 96.1741 21.0852 96.7625C21.9641 100.812 20.5479 105.287 17.496 108.097C15.5548 105.817 12.8293 104.219 9.89183 103.627C8.64083 103.376 7.28526 103.317 6.13213 103.874C4.98095 104.433 4.1302 105.756 4.45675 106.989C4.83242 108.409 6.456 109.065 7.89514 109.342C10.5676 109.856 13.3506 109.776 15.9875 109.109C16.6519 108.942 17.3266 108.725 17.8347 108.268C18.6352 107.546 18.8733 106.365 19.6257 105.589C21.1115 104.054 23.7995 104.852 25.3324 106.341C26.8634 107.826 27.8351 109.854 29.5251 111.158C29.8099 111.377 30.1314 111.58 30.4882 111.59C31.2275 111.608 31.7092 110.844 32.0799 110.203C33.3053 108.109 35.2497 106.23 37.6597 105.947" stroke="#494949" stroke-width="2.647" stroke-miterlimit="10" stroke-linecap="round" stroke-linejoin="round"/>
<path d="M29.5165 130.522L17.4985 108.095" stroke="#494949" stroke-width="2.647" stroke-miterlimit="10" stroke-linecap="round" stroke-linejoin="round"/>
<path d="M12.2188 125.337L35.2515 113.204" stroke="#494949" stroke-width="2.647" stroke-miterlimit="10" stroke-linecap="round" stroke-linejoin="round"/>
<path d="M1521.49 354.762L1472.4 355.738L1471.43 306.711L1520.51 305.736L1521.49 354.762Z" fill="white"/>
<path d="M1496.45 305.651C1497.49 300.901 1499.15 296.291 1501.4 291.972C1503.23 288.454 1506.34 284.684 1510.27 285.273C1510.9 285.367 1511.55 285.6 1511.97 286.078C1512.74 286.942 1512.55 288.273 1512.23 289.381C1510.04 297.038 1503.59 303.329 1495.87 305.319C1494.65 299.693 1491.49 294.511 1487.05 290.846C1485.15 289.282 1482.91 287.952 1480.46 287.853C1478 287.753 1475.36 289.218 1474.8 291.605C1474.15 294.348 1476.3 296.933 1478.48 298.713C1482.54 302.01 1487.33 304.397 1492.4 305.663C1493.67 305.978 1495.02 306.229 1496.29 305.914C1498.31 305.418 1499.78 303.632 1501.76 303.002C1510.22 300.3 1510.16 316.418 1515.2 320.112C1517.56 321.833 1520.66 322.277 1523.56 321.892C1526.45 321.507 1529.18 320.369 1531.85 319.178" stroke="#FF645A" stroke-width="3.9309" stroke-miterlimit="10" stroke-linecap="round" stroke-linejoin="round"/>
<path d="M1495.86 354.209L1495.87 305.318" stroke="#FF645A" stroke-width="3.9309" stroke-miterlimit="10" stroke-linecap="round" stroke-linejoin="round"/>
<path d="M1471.28 329.716L1521.3 330.084" stroke="#FF645A" stroke-width="3.9309" stroke-miterlimit="10" stroke-linecap="round" stroke-linejoin="round"/>
<path d="M1575.39 284.072L1549.22 270.925L1562.38 244.792L1588.55 257.939L1575.39 284.072Z" fill="#FF645A"/>
<path d="M1575.88 251.193C1577.76 248.975 1579.92 247.009 1582.31 245.352C1584.25 244.003 1586.95 242.883 1588.86 244.289C1589.17 244.517 1589.44 244.815 1589.53 245.188C1589.69 245.859 1589.22 246.507 1588.75 247.003C1585.46 250.434 1580.3 251.952 1575.67 250.854C1576.59 247.552 1576.38 243.933 1575.06 240.765C1574.5 239.411 1573.68 238.086 1572.42 237.351C1571.15 236.616 1569.35 236.651 1568.38 237.754C1567.27 239.02 1567.68 240.981 1568.34 242.527C1569.57 245.392 1571.42 247.989 1573.75 250.067C1574.33 250.592 1574.97 251.094 1575.73 251.281C1576.93 251.578 1578.21 251.047 1579.43 251.269C1584.64 252.203 1580.12 260.682 1581.75 264.037C1582.51 265.601 1584.03 266.698 1585.66 267.299C1587.29 267.9 1589.05 268.064 1590.79 268.175" stroke="#494949" stroke-width="1.6716" stroke-miterlimit="10" stroke-linecap="round" stroke-linejoin="round"/>
<path d="M1562.03 276.643L1575.67 250.861" stroke="#494949" stroke-width="1.6716" stroke-miterlimit="10" stroke-linecap="round" stroke-linejoin="round"/>
<path d="M1555.89 256.883L1582.17 270.999" stroke="#494949" stroke-width="1.6716" stroke-miterlimit="10" stroke-linecap="round" stroke-linejoin="round"/>
<path d="M1632.95 226.407L1617.82 235.104L1609.11 219.984L1624.25 211.287L1632.95 226.407Z" fill="#FF645A"/>
<path d="M1616.73 215.374C1616.24 213.717 1615.97 211.989 1615.93 210.262C1615.9 208.85 1616.22 207.14 1617.55 206.655C1617.76 206.58 1618 206.539 1618.21 206.615C1618.6 206.755 1618.77 207.198 1618.86 207.601C1619.49 210.361 1618.56 213.431 1616.49 215.368C1615.15 213.822 1613.27 212.748 1611.26 212.363C1610.4 212.199 1609.47 212.164 1608.69 212.555C1607.91 212.946 1607.34 213.851 1607.57 214.697C1607.84 215.666 1608.95 216.103 1609.94 216.284C1611.76 216.617 1613.67 216.547 1615.47 216.074C1615.92 215.957 1616.38 215.8 1616.72 215.485C1617.27 214.989 1617.42 214.178 1617.93 213.641C1620.11 211.353 1622.85 216.389 1625.05 216.675C1626.08 216.809 1627.12 216.418 1627.96 215.8C1628.8 215.187 1629.46 214.364 1630.08 213.536" stroke="#EEF0F1" stroke-width="1.6716" stroke-miterlimit="10" stroke-linecap="round" stroke-linejoin="round"/>
<path d="M1624.87 230.617L1616.49 215.368" stroke="#EEF0F1" stroke-width="1.6716" stroke-miterlimit="10" stroke-linecap="round" stroke-linejoin="round"/>
<path d="M1613.01 227.179L1628.67 218.741" stroke="#EEF0F1" stroke-width="1.6716" stroke-miterlimit="10" stroke-linecap="round" stroke-linejoin="round"/>
<path d="M117.52 378.448L74.6537 403.077L49.9961 360.26L92.8625 335.631L117.52 378.448Z" fill="#FF645A"/>
<path d="M71.5815 347.204C70.1917 342.51 69.4306 337.619 69.3148 332.727C69.2155 328.728 70.1421 323.885 73.8978 322.514C74.51 322.299 75.1883 322.183 75.784 322.398C76.876 322.795 77.3558 324.051 77.6205 325.191C79.4074 333.008 76.7601 341.701 70.9031 347.187C67.0977 342.808 61.7867 339.767 56.0952 338.676C53.663 338.214 51.0324 338.114 48.8153 339.222C46.5982 340.329 44.9768 342.891 45.6386 345.287C46.3997 348.03 49.5433 349.27 52.3394 349.782C57.5181 350.724 62.9118 350.526 68.0077 349.187C69.2817 348.856 70.5888 348.41 71.565 347.518C73.1037 346.113 73.5338 343.816 74.9733 342.296C81.1446 335.817 88.9044 350.079 95.1419 350.889C98.0539 351.269 101.015 350.162 103.381 348.41C105.747 346.675 107.617 344.345 109.387 341.998" stroke="#EEF0F1" stroke-width="1.6716" stroke-miterlimit="10" stroke-linecap="round" stroke-linejoin="round"/>
<path d="M94.6284 390.37L70.9025 347.188" stroke="#EEF0F1" stroke-width="1.6716" stroke-miterlimit="10" stroke-linecap="round" stroke-linejoin="round"/>
<path d="M61.0417 380.636L105.383 356.739" stroke="#EEF0F1" stroke-width="1.6716" stroke-miterlimit="10" stroke-linecap="round" stroke-linejoin="round"/>
<path d="M188.158 274.106L157.47 265.814L165.726 235.136L196.414 243.428L188.158 274.106Z" fill="#FF645A"/>
<path d="M181.476 239.014C182.978 236.248 184.856 233.678 187.028 231.401C188.801 229.538 191.424 227.757 193.755 228.841C194.131 229.022 194.492 229.278 194.665 229.646C194.981 230.323 194.628 231.112 194.23 231.751C191.489 236.118 186.333 238.866 181.175 238.698C181.436 234.977 180.404 231.179 178.312 228.096C177.417 226.78 176.266 225.538 174.754 225.034C173.243 224.529 171.341 224.957 170.553 226.347C169.651 227.94 170.517 229.933 171.555 231.437C173.482 234.22 176.024 236.582 178.95 238.291C179.679 238.72 180.476 239.111 181.326 239.149C182.664 239.21 183.904 238.361 185.25 238.324C191.001 238.185 188.045 248.197 190.513 251.402C191.664 252.898 193.514 253.741 195.386 254.021C197.251 254.307 199.16 254.098 201.032 253.836" stroke="#EEF0F1" stroke-width="1.6716" stroke-miterlimit="10" stroke-linecap="round" stroke-linejoin="round"/>
<path d="M172.329 269.118L181.175 238.698" stroke="#EEF0F1" stroke-width="1.6716" stroke-miterlimit="10" stroke-linecap="round" stroke-linejoin="round"/>
<path d="M161.484 249.422L192.509 258.717" stroke="#EEF0F1" stroke-width="1.6716" stroke-miterlimit="10" stroke-linecap="round" stroke-linejoin="round"/>
<path d="M1310.36 298.881C1330.28 298.881 1346.49 282.693 1346.49 262.788C1346.49 242.889 1330.29 226.695 1310.36 226.695C1290.43 226.695 1274.22 242.883 1274.22 262.788C1274.22 282.688 1290.43 298.881 1310.36 298.881ZM1310.36 236.446C1324.9 236.446 1336.72 248.263 1336.72 262.782C1336.72 277.307 1324.89 289.118 1310.36 289.118C1295.82 289.118 1283.99 277.301 1283.99 262.782C1283.98 248.263 1295.82 236.446 1310.36 236.446Z" fill="#494949"/>
<path d="M1643.74 410.937H1101.73C1101.73 410.937 1119.31 363.138 1195.48 303.638C1271.65 244.132 1299.98 223.649 1393.73 345.584H1523.62L1541.2 293.886C1541.2 293.886 1623.23 331.929 1644.72 365.098C1644.72 365.087 1651.55 387.525 1643.74 410.937Z" fill="#FF645A"/>
<path d="M1395.36 345.579C1395.36 345.579 1415.86 369.475 1411.47 410.447" stroke="#494949" stroke-width="3.3432" stroke-miterlimit="10" stroke-linecap="round" stroke-linejoin="round"/>
<path d="M1504.09 345.579C1504.09 345.579 1524.6 369.475 1520.2 410.447" stroke="#494949" stroke-width="3.3432" stroke-miterlimit="10" stroke-linecap="round" stroke-linejoin="round"/>
<path d="M1411.96 361.836H1426.94C1428.37 361.836 1429.54 360.663 1429.54 359.234C1429.54 357.804 1428.37 356.631 1426.94 356.631H1411.96C1410.53 356.631 1409.36 357.804 1409.36 359.234C1409.36 360.669 1410.53 361.836 1411.96 361.836Z" fill="#494949"/>
<path d="M1266.12 257.787C1266.12 257.787 1135.34 329.431 1102.71 344.93C1099.86 346.284 1081.87 357.611 1092.29 386.877L1102.38 411.591L1338.39 404.763L1366.39 358.592L1266.12 257.787Z" fill="#FF645A"/>
<path d="M1573.43 358.259H1623.23C1629.71 358.259 1634.95 353.018 1634.95 346.553V307.536H1671.09V284.123H1623.23C1616.76 284.123 1611.51 289.363 1611.51 295.829V334.846H1573.43V358.259Z" fill="#EEF0F1"/>
<path d="M1109.22 460.686H1604.03C1607.8 460.686 1610.87 457.628 1610.87 453.858C1610.87 450.088 1607.8 447.03 1604.03 447.03H1109.22C1088.42 447.03 1072.4 441.206 1061.59 429.716C1049.82 417.199 1047.34 401.343 1047.34 390.25C1047.34 355.487 1071.42 318.273 1107.26 318.273C1111.03 318.273 1114.09 315.215 1114.09 311.445C1114.09 307.676 1111.03 304.618 1107.26 304.618C1063.24 304.618 1033.66 348.898 1033.66 390.255C1033.66 409.431 1040.04 426.769 1051.62 439.076C1064.93 453.21 1084.85 460.686 1109.22 460.686Z" fill="#494949"/>
<path d="M1145.19 409.963L1137.53 365.023C1136 356.001 1142.88 347.738 1152.04 347.597L1230.68 346.425C1238.13 346.314 1244.52 351.7 1245.66 359.053L1253.6 409.963H1145.19Z" fill="#EEF0F1"/>
<path d="M1268.24 253.883C1268.24 253.883 1333.83 253.883 1393.73 345.578H1523.62L1541.2 293.881" stroke="#EEF0F1" stroke-width="16.7158" stroke-miterlimit="10" stroke-linecap="round" stroke-linejoin="round"/>
<path d="M1491.59 282.618C1491.23 283.481 1490.98 284.713 1491.81 285.15C1492.43 285.477 1493.18 285.045 1493.73 284.614C1495.54 283.184 1497.15 281.515 1498.52 279.659C1499.63 282.997 1499.64 286.703 1498.53 290.041C1498.27 290.846 1497.93 291.651 1497.89 292.503C1497.85 293.355 1498.17 294.289 1498.93 294.692C1499.67 295.094 1500.82 294.668 1500.9 293.822C1500.72 294.89 1501.74 295.905 1502.82 295.97C1503.9 296.034 1504.92 295.345 1505.52 294.441C1505.38 295.164 1506.22 295.777 1506.95 295.695C1507.69 295.614 1508.28 295.089 1508.8 294.557C1512.05 291.208 1514.1 286.831 1515.31 282.326C1516.52 277.815 1516.95 273.141 1517.35 268.49C1511.79 270.538 1505.65 270.964 1499.87 269.698C1499.39 270.853 1498.36 271.664 1497.47 272.546C1494.69 275.3 1493.11 279.006 1491.59 282.618Z" fill="#FCA19F"/>
<path d="M1518.64 246.32C1515.09 245.526 1498.52 246.81 1490.76 253.504C1490.76 253.504 1489.07 269.371 1493.33 271.262C1497.6 273.152 1521.31 270.655 1522.47 266.856C1523.64 263.063 1521.33 246.921 1518.64 246.32Z" fill="#EEF0F1"/>
<path d="M1290.82 242.136C1290.84 241.43 1290.87 240.718 1290.89 240.012C1291.99 240.928 1293.22 241.885 1294.65 241.915C1296.08 241.944 1297.58 240.479 1296.99 239.172C1297.83 240.222 1299.71 239.563 1300.21 238.314C1300.71 237.071 1300.25 235.659 1299.68 234.445C1299.1 233.231 1298.4 232.012 1298.39 230.675C1298.39 230.389 1298.43 230.086 1298.6 229.852C1298.84 229.526 1299.28 229.421 1299.68 229.339C1302.43 228.784 1305.18 228.23 1307.93 227.676C1308.97 227.466 1310.33 226.684 1309.87 225.727C1309.7 225.394 1309.35 225.196 1309.02 225.032C1305.44 223.264 1301.48 222.284 1297.49 222.19C1295.77 222.149 1294.01 222.284 1292.46 223.019C1290.91 223.754 1289.62 225.201 1289.46 226.905C1287.53 226.754 1285.79 228.405 1285.26 230.278C1284.74 232.152 1285.16 234.159 1285.8 235.997C1286.27 237.363 1286.86 238.693 1287.55 239.965C1288.21 241.226 1289.46 242.609 1290.82 242.136Z" fill="#FCA19F"/>
<path d="M1094.93 383.776C1090.96 368.922 1096.24 354.616 1106.72 351.822C1117.2 349.029 1128.91 358.805 1132.88 373.659C1136.85 388.513 1131.57 402.819 1121.09 405.613C1110.61 408.406 1098.9 398.63 1094.93 383.776Z" fill="white"/>
<path d="M1120.42 365.969C1123.61 365.117 1126.91 365.449 1130.07 366.716C1131.23 369.009 1132.19 371.495 1132.91 374.156C1136.87 389.013 1131.6 403.317 1121.12 406.112C1117.93 406.964 1114.63 406.631 1111.47 405.365C1110.31 403.071 1109.35 400.585 1108.64 397.924C1104.66 383.067 1109.95 368.758 1120.42 365.969Z" fill="#EEF0F1"/>
<path d="M1255.1 383.781C1251.13 368.927 1256.41 354.621 1266.89 351.827C1277.36 349.034 1289.08 358.81 1293.04 373.664C1297.01 388.518 1291.74 402.824 1281.26 405.617C1270.78 408.411 1259.07 398.634 1255.1 383.781Z" fill="white"/>
<path d="M1280.58 365.969C1283.77 365.117 1287.07 365.449 1290.24 366.716C1291.39 369.009 1292.36 371.495 1293.07 374.156C1297.04 389.013 1291.76 403.317 1281.29 406.112C1278.1 406.964 1274.79 406.631 1271.63 405.365C1270.48 403.071 1269.51 400.585 1268.8 397.924C1264.83 383.067 1270.11 368.758 1280.58 365.969Z" fill="#EEF0F1"/>
<path d="M1295.96 372.619C1293.92 364.974 1296.63 357.612 1302.02 356.175C1307.41 354.739 1313.44 359.772 1315.48 367.417C1317.52 375.061 1314.81 382.423 1309.42 383.86C1304.02 385.297 1298 380.264 1295.96 372.619Z" fill="#FFA436"/>
<path d="M1623.72 380.869C1621.68 373.225 1624.39 365.862 1629.78 364.425C1635.17 362.988 1641.2 368.02 1643.24 375.665C1645.28 383.31 1642.57 390.672 1637.18 392.109C1631.79 393.547 1625.76 388.514 1623.72 380.869Z" fill="#FFA436"/>
<path d="M1231.54 354.577C1233.14 354.344 1234.63 355.458 1234.87 357.052L1240.03 392.445C1240.27 394.038 1239.15 395.532 1237.56 395.765C1235.96 395.999 1234.46 394.884 1234.23 393.291L1229.07 357.898C1228.83 356.305 1229.95 354.811 1231.54 354.577Z" fill="#494949"/>
<path d="M1218.19 354.577C1219.79 354.344 1221.28 355.458 1221.52 357.052L1226.68 392.445C1226.92 394.038 1225.8 395.532 1224.21 395.765C1222.61 395.999 1221.11 394.884 1220.88 393.291L1215.72 357.898C1215.49 356.305 1216.6 354.811 1218.19 354.577Z" fill="#494949"/>
<path d="M1204.2 354.577C1205.79 354.344 1207.29 355.458 1207.52 357.052L1212.68 392.445C1212.92 394.038 1211.8 395.532 1210.21 395.765C1208.61 395.999 1207.12 394.884 1206.88 393.291L1201.72 357.898C1201.49 356.305 1202.6 354.811 1204.2 354.577Z" fill="#494949"/>
<path d="M1190.85 354.577C1192.45 354.344 1193.94 355.458 1194.18 357.052L1199.34 392.445C1199.57 394.038 1198.46 395.532 1196.86 395.765C1195.27 395.999 1193.77 394.884 1193.54 393.291L1188.37 357.898C1188.14 356.305 1189.26 354.811 1190.85 354.577Z" fill="#494949"/>
<path d="M1177.18 354.577C1178.78 354.344 1180.27 355.458 1180.5 357.052L1185.67 392.445C1185.9 394.038 1184.79 395.532 1183.19 395.765C1181.6 395.999 1180.1 394.884 1179.87 393.291L1174.7 357.898C1174.47 356.305 1175.59 354.811 1177.18 354.577Z" fill="#494949"/>
<path d="M1163.83 354.577C1165.43 354.344 1166.92 355.458 1167.15 357.052L1172.32 392.445C1172.55 394.038 1171.44 395.532 1169.84 395.765C1168.25 395.999 1166.75 394.884 1166.52 393.291L1161.35 357.898C1161.12 356.305 1162.24 354.811 1163.83 354.577Z" fill="#494949"/>
<path d="M1149.51 354.577C1151.1 354.344 1152.6 355.458 1152.83 357.052L1157.99 392.445C1158.23 394.038 1157.11 395.532 1155.52 395.765C1153.92 395.999 1152.43 394.884 1152.19 393.291L1147.03 357.898C1146.8 356.305 1147.92 354.811 1149.51 354.577Z" fill="#494949"/>
<path d="M1096.19 415.816H1642.44C1644.94 415.816 1646.99 413.768 1646.99 411.264C1646.99 408.761 1644.94 406.712 1642.44 406.712H1096.19C1093.69 406.712 1091.64 408.761 1091.64 411.264C1091.64 413.768 1093.69 415.816 1096.19 415.816Z" fill="#EEF0F1"/>
<path d="M1267.91 460.686H1694.52C1698.3 460.686 1701.36 457.628 1701.36 453.858C1701.36 450.088 1698.3 447.03 1694.52 447.03H1267.91C1247.12 447.03 1231.09 441.206 1220.29 429.716C1208.51 417.199 1206.04 401.343 1206.04 390.25C1206.04 355.487 1230.12 318.273 1265.96 318.273C1269.73 318.273 1272.8 315.215 1272.8 311.445C1272.8 307.676 1269.73 304.618 1265.96 304.618C1221.94 304.618 1192.36 348.898 1192.36 390.255C1192.36 409.431 1198.74 426.769 1210.32 439.076C1223.63 453.21 1243.54 460.686 1267.91 460.686Z" fill="#494949"/>
<path d="M1258.31 450.281L1272.63 413.861" stroke="#494949" stroke-width="20.059" stroke-miterlimit="10" stroke-linecap="round" stroke-linejoin="round"/>
<path d="M1611.19 450.281L1625.51 413.861" stroke="#494949" stroke-width="20.059" stroke-miterlimit="10" stroke-linecap="round" stroke-linejoin="round"/>
<defs>
<filter id="filter0_d" x="715.216" y="-279.459" width="922.768" height="931.949" filterUnits="userSpaceOnUse" color-interpolation-filters="sRGB">
<feFlood flood-opacity="0" result="BackgroundImageFix"/>
<feColorMatrix in="SourceAlpha" type="matrix" values="0 0 0 0 0 0 0 0 0 0 0 0 0 0 0 0 0 0 127 0"/>
<feOffset dy="14"/>
<feGaussianBlur stdDeviation="10"/>
<feColorMatrix type="matrix" values="0 0 0 0 0 0 0 0 0 0 0 0 0 0 0 0 0 0 0.1 0"/>
<feBlend mode="normal" in2="BackgroundImageFix" result="effect1_dropShadow"/>
<feBlend mode="normal" in="SourceGraphic" in2="effect1_dropShadow" result="shape"/>
</filter>
</defs>
</svg>
